:SAMPLES-PER-SECOND 30
:FULLY-SPECIFIED
:DEGREES
16
root  83.2515 40.4433 -3.69662 -177.686 -88.3576 177.51
RightUpLeg  0.825997 -8.16289 -5.27214
RightLeg  1.52796 -7.18003 4.02681
RightFoot  -0.894014 0.13244 -1.52438
RightToes  -1.16417e-010 0 -3.6325e-017
Spine  2.21183 0.26717 1.98047
Spine1  4.1586 0.639051 -1.64408
HEad  -2.35485 3.77026 -0.672125
LeftShoulder1  2.38164 -3.94944 -25.6868
LeftArm  -22.0853 10.3066 -2.14917
LeftForeArm  15.3787 -14.0131 -1.95417
LeftHand  -0.244104 0.0205437 5.32207
RightShoulder  2.09933 4.09831 21.292
RightArm  -18.5517 -3.16434 6.87575
RightForeArm  1.50374 13.0221 4.67191
RightHand  -1.13296 2.8221 -16.1521
LeftUpLeg  1.43852 6.58047 5.9179
LeftLeg  0.399301 12.904 -4.08111
LeftFoot  -0.7571 0.172976 -1.80341
LeftToes  -1.16419e-010 -9.34044e-011 -2.32061e-011
17
root  83.2642 40.4393 -3.69359 -177.371 -88.3468 177.119
RightUpLeg  0.844706 -8.17417 -5.29508
RightLeg  1.61632 -7.16119 4.00785
RightFoot  -0.94766 0.130945 -1.51092
RightToes  -1.16417e-010 0 -3.6325e-017
Spine  2.15964 0.3623 1.85545
Spine1  4.5605 0.628356 -1.13659
HEad  -2.24862 4.14275 -1.39397
LeftShoulder1  2.97295 -5.03745 -28.6505
LeftArm  -22.0743 11.4062 -4.04277
LeftForeArm  16.9364 -15.5551 -2.24884
LeftHand  -0.244104 0.0205437 5.32207
RightShoulder  2.56313 4.88062 24.4173
RightArm  -17.1682 -4.44474 8.6218
RightForeArm  2.59556 14.8806 4.68387
RightHand  -1.09212 2.80591 -15.6146
LeftUpLeg  1.45859 6.58158 5.9112
LeftLeg  0.491744 12.9022 -4.06183
LeftFoot  -0.799061 0.173083 -1.80508
LeftToes  -1.16419e-010 -9.34044e-011 -2.32061e-011
18
root  83.281 40.4353 -3.68981 -175.736 -88.4209 175.415
RightUpLeg  0.83353 -8.22422 -5.36314
RightLeg  1.7749 -7.17849 3.99304
RightFoot  -1.03241 0.127225 -1.4858
RightToes  -1.16417e-010 0 -3.6325e-017
Spine  2.03968 0.394092 1.72654
Spine1  5.04708 0.558663 -0.66952
HEad  -2.34664 4.23633 -2.05486
LeftShoulder1  3.67256 -6.2078 -31.7293
LeftArm  -21.5055 12.4034 -6.14797
LeftForeArm  17.8089 -16.3447 -2.49061
LeftHand  -0.244104 0.0205437 5.32207
RightShoulder  3.12335 5.70889 27.88
RightArm  -15.8725 -5.4519 10.2754
RightForeArm  3.83073 15.773 4.68091
RightHand  -1.03809 2.87766 -14.7371
LeftUpLeg  1.46588 6.54792 5.85933
LeftLeg  0.548735 12.853 -4.04277
LeftFoot  -0.813112 0.172508 -1.79613
LeftToes  -1.16419e-010 -9.34044e-011 -2.32061e-011
19
root  83.2964 40.4333 -3.67994 -173.024 -88.5934 172.659
RightUpLeg  0.82931 -8.31296 -5.46773
RightLeg  1.90721 -7.24894 4.00849
RightFoot  -1.10322 0.125608 -1.47873
RightToes  -1.16417e-010 0 -3.6325e-017
Spine  1.79399 0.292707 1.64864
Spine1  5.74815 0.358418 -0.260178
HEad  -2.86284 4.17968 -2.47892
LeftShoulder1  4.37283 -7.13075 -35.0175
LeftArm  -20.3388 12.8379 -8.34419
LeftForeArm  18.1654 -16.1468 -2.6449
LeftHand  -0.244104 0.0205437 5.32207
RightShoulder  3.78385 6.60917 31.4643
RightArm  -14.9801 -6.00489 11.9505
RightForeArm  5.14833 15.3816 4.72327
RightHand  -0.986811 2.85471 -14.0654
LeftUpLeg  1.45718 6.47372 5.7641
LeftLeg  0.545586 12.7599 -4.01758
LeftFoot  -0.798853 0.169871 -1.75514
LeftToes  -1.16419e-010 -9.34044e-011 -2.32061e-011
20
root  83.302 40.4322 -3.66354 -170.016 -88.7701 169.606
RightUpLeg  0.867983 -8.40825 -5.57986
RightLeg  1.98635 -7.32182 4.04032
RightFoot  -1.16255 0.125575 -1.48986
RightToes  -1.16417e-010 0 -3.6325e-017
Spine  1.68565 0.148863 1.597
Spine1  6.29039 0.0963874 0.198384
HEad  -3.50648 4.39692 -2.76042
LeftShoulder1  5.13327 -7.96575 -38.538
LeftArm  -18.5915 12.9654 -10.4198
LeftForeArm  18.3738 -15.1956 -2.83509
LeftHand  -0.244104 0.0205437 5.32207
RightShoulder  4.45804 7.44331 34.7682
RightArm  -14.786 -6.31242 13.8686
RightForeArm  6.83392 13.7679 4.7879
RightHand  -0.93248 2.68918 -13.5702
LeftUpLeg  1.46918 6.40549 5.6692
LeftLeg  0.535751 12.662 -3.99554
LeftFoot  -0.802625 0.165661 -1.68969
LeftToes  -1.16419e-010 -9.34044e-011 -2.32061e-011
21
root  83.2956 40.4316 -3.64775 -167.871 -88.8036 167.44
RightUpLeg  0.871735 -8.48483 -5.67506
RightLeg  2.06805 -7.27903 4.06315
RightFoot  -1.21536 0.126042 -1.50442
RightToes  -1.16417e-010 0 -3.6325e-017
Spine  1.79455 0.111613 1.58579
Spine1  6.41204 -0.0544188 0.651989
HEad  -3.84816 4.92721 -3.05006
LeftShoulder1  5.99241 -8.89062 -41.9443
LeftArm  -16.6723 13.229 -12.4636
LeftForeArm  18.9472 -13.9094 -3.1468
LeftHand  -0.244104 0.0205437 5.32207
RightShoulder  5.03518 8.07261 37.4745
RightArm  -15.0244 -6.8957 16.2385
RightForeArm  9.24332 11.7281 4.74611
RightHand  -0.826536 2.30398 -12.6264
LeftUpLeg  1.49571 6.39501 5.61474
LeftLeg  0.544427 12.6309 -4.0179
LeftFoot  -0.842244 0.163662 -1.65861
LeftToes  -1.16419e-010 -9.34044e-011 -2.32061e-011
22
root  83.2807 40.431 -3.63522 -166.76 -88.682 166.407
RightUpLeg  0.762108 -8.54544 -5.75181
RightLeg  2.13376 -7.10627 4.07939
RightFoot  -1.22985 0.127114 -1.52611
RightToes  -1.16417e-010 0 -3.6325e-017
Spine  1.75556 0.16459 1.78311
Spine1  6.53383 -0.0277063 0.755619
HEad  -4.03311 5.32425 -3.1602
LeftShoulder1  6.72539 -9.64427 -44.5435
LeftArm  -15.3511 13.4731 -15.0507
LeftForeArm  20.3084 -12.3622 -3.46045
LeftHand  -0.244104 0.0205437 5.32207
RightShoulder  5.46444 8.50121 39.4144
RightArm  -15.3695 -8.10175 19.3517
RightForeArm  11.8217 10.3105 4.54391
RightHand  -0.662843 1.62782 -11.1039
LeftUpLeg  1.48018 6.40508 5.56981
LeftLeg  0.500203 12.7212 -4.08598
LeftFoot  -0.861702 0.166295 -1.69954
LeftToes  -1.16419e-010 -9.34044e-011 -2.32061e-011
23
root  83.2576 40.4306 -3.62102 -166.221 -88.5247 166.011
RightUpLeg  0.635966 -8.57749 -5.80463
RightLeg  2.09723 -6.92919 4.08745
RightFoot  -1.20433 0.12782 -1.54189
RightToes  -1.16417e-010 0 -3.6325e-017
Spine  1.70695 0.252513 2.29552
Spine1  6.48098 0.177118 0.27926
HEad  -4.1763 5.23932 -2.71943
LeftShoulder1  7.22879 -10.1356 -46.205
LeftArm  -14.9023 13.6818 -18.1616
LeftForeArm  21.7661 -10.5545 -3.62697
LeftHand  -0.244104 0.0205437 5.32207
RightShoulder  5.76936 8.74027 40.9255
RightArm  -15.8377 -10.0736 22.8636
RightForeArm  12.9934 9.9246 4.3607
RightHand  -0.540201 0.976639 -9.98048
LeftUpLeg  1.44724 6.37183 5.49613
LeftLeg  0.362307 12.9157 -4.14104
LeftFoot  -0.830919 0.169668 -1.75198
LeftToes  -1.16419e-010 -9.34044e-011 -2.32061e-011
